PathFileType	4	(X/Y/Z)	 2.2Hzlow3min.trc
DataRate	CameraRate	NumFrames	NumMarkers	Units	OrigDataRate	OrigDataStartFrame	OrigNumFrames
200	200	7	35	m	200	1	1000
Frame#	Time	C7			LSH			RSH			MAN			RASI			LASI			HIPR			HIPL			RPSI			LPSI			COX			RTHI1			RTHI2			RTHI3			RTHI4			RSHA1			RSHA2			RSHA3			RSHA4			RHEEL			RMET5			RMET1			RTOE			LTHI1			LTHI2			LTHI3			LTHI4			LSHA1			LSHA2			LSHA3			LSHA4			LHEEL			LMET5			LMET1			LTOE			
		X1	Y1	Z1	X2	Y2	Z2	X3	Y3	Z3	X4	Y4	Z4	X5	Y5	Z5	X6	Y6	Z6	X7	Y7	Z7	X8	Y8	Z8	X9	Y9	Z9	X10	Y10	Z10	X11	Y11	Z11	X12	Y12	Z12	X13	Y13	Z13	X14	Y14	Z14	X15	Y15	Z15	X16	Y16	Z16	X17	Y17	Z17	X18	Y18	Z18	X19	Y19	Z19	X20	Y20	Z20	X21	Y21	Z21	X22	Y22	Z22	X23	Y23	Z23	X24	Y24	Z24	X25	Y25	Z25	X26	Y26	Z26	X27	Y27	Z27	X28	Y28	Z28	X29	Y29	Z29	X30	Y30	Z30	X31	Y31	Z31	X32	Y32	Z32	X33	Y33	Z33	X34	Y34	Z34	X35	Y35	Z35	
1	0.0050	-0.309021	1.295263	-0.513343	-0.243488	1.246374	-0.692283	-0.249782	1.261951	-0.341915	-0.192744	1.242878	-0.516715	-0.168520	0.854866	-0.441663	-0.184975	0.866919	-0.618666	-0.230075	0.903500	-0.385140	-0.239936	0.921708	-0.642475	-0.318516	0.890787	-0.442041	-0.326239	0.903430	-0.558208	-0.326198	0.904441	-0.500143	-0.234045	0.674779	-0.355495	-0.219031	0.614814	-0.357903	-0.151202	0.639628	-0.373447	-0.173973	0.695723	-0.369228	-0.241412	0.280170	-0.354885	-0.269369	0.247745	-0.358583	-0.219859	0.215136	-0.372826	-0.196909	0.248445	-0.372145	-0.413842	0.071106	-0.418586	-0.268095	0.030162	-0.338389	-0.228750	0.033035	-0.415071	-0.204045	0.026131	-0.402969	-0.270555	0.640753	-0.687059	-0.251715	0.584546	-0.685625	-0.184887	0.607583	-0.700408	-0.211235	0.662944	-0.702102	-0.285732	0.262930	-0.681701	-0.306570	0.228806	-0.674356	-0.250408	0.200925	-0.680134	-0.236320	0.242070	-0.687724	-0.398839	0.065250	-0.607761	-0.264580	0.028619	-0.706729	-0.214410	0.035875	-0.642855	-0.193258	0.026815	-0.658989	
2	0.0100	-0.309419	1.296312	-0.512947	-0.244727	1.247294	-0.692402	-0.249275	1.263295	-0.341310	-0.192767	1.244640	-0.516792	-0.168251	0.855962	-0.441317	-0.184895	0.868331	-0.618297	-0.230192	0.904183	-0.384714	-0.240257	0.922521	-0.642635	-0.318412	0.891377	-0.441675	-0.326200	0.904462	-0.557906	-0.326153	0.905469	-0.499654	-0.233062	0.675916	-0.355167	-0.218451	0.615842	-0.357663	-0.150686	0.640243	-0.373918	-0.173104	0.696497	-0.369553	-0.241774	0.280270	-0.354712	-0.269506	0.247556	-0.358403	-0.219943	0.215114	-0.373018	-0.197250	0.248610	-0.372383	-0.414058	0.071109	-0.418445	-0.268043	0.030173	-0.338333	-0.228826	0.033025	-0.415118	-0.204113	0.026196	-0.402955	-0.270762	0.642257	-0.687023	-0.252349	0.585920	-0.685682	-0.185438	0.608369	-0.700879	-0.211332	0.663898	-0.702378	-0.286126	0.263715	-0.682555	-0.306764	0.229512	-0.675153	-0.250654	0.201803	-0.680785	-0.236658	0.242949	-0.688453	-0.398752	0.065984	-0.608325	-0.264471	0.028575	-0.706957	-0.214437	0.035831	-0.642971	-0.193249	0.026800	-0.659049	
3	0.0150	-0.309852	1.297758	-0.512560	-0.246252	1.248920	-0.692368	-0.248935	1.265037	-0.340899	-0.193262	1.246552	-0.516896	-0.167873	0.857444	-0.440989	-0.184655	0.870177	-0.617889	-0.229962	0.905243	-0.384270	-0.240196	0.923962	-0.642708	-0.317913	0.892571	-0.441393	-0.326004	0.906035	-0.557638	-0.325991	0.906985	-0.499142	-0.232153	0.677507	-0.354853	-0.217957	0.617343	-0.357359	-0.150231	0.641347	-0.374424	-0.172286	0.697744	-0.369911	-0.242513	0.280624	-0.354481	-0.270010	0.247594	-0.358184	-0.220386	0.215504	-0.373022	-0.197892	0.249149	-0.372378	-0.414186	0.071141	-0.418171	-0.267990	0.030176	-0.338259	-0.228902	0.033025	-0.415143	-0.204204	0.026275	-0.402888	-0.271125	0.644204	-0.686968	-0.253106	0.587734	-0.685706	-0.186104	0.609611	-0.701308	-0.211581	0.665302	-0.702633	-0.286868	0.264614	-0.683128	-0.307341	0.230375	-0.675716	-0.251186	0.202913	-0.681407	-0.237346	0.244090	-0.689158	-0.398623	0.066814	-0.608809	-0.264385	0.028523	-0.707157	-0.214492	0.035740	-0.643049	-0.193266	0.026801	-0.659120	
4	0.0200	-0.310303	1.299325	-0.512177	-0.247764	1.250656	-0.692343	-0.248622	1.266923	-0.340506	-0.193717	1.248632	-0.516993	-0.167465	0.859023	-0.440676	-0.184387	0.872126	-0.617478	-0.229648	0.906453	-0.383838	-0.240042	0.925580	-0.642718	-0.317463	0.893915	-0.441117	-0.325773	0.907732	-0.557378	-0.325787	0.908624	-0.498661	-0.231269	0.679227	-0.354545	-0.217483	0.618966	-0.357048	-0.149801	0.642567	-0.374891	-0.171488	0.699111	-0.370261	-0.243329	0.281061	-0.354193	-0.270630	0.247755	-0.357969	-0.220885	0.215993	-0.372968	-0.198603	0.249796	-0.372313	-0.414294	0.071224	-0.417889	-0.267933	0.030179	-0.338183	-0.228972	0.033028	-0.415161	-0.204294	0.026342	-0.402829	-0.271531	0.646255	-0.686905	-0.253900	0.589664	-0.685714	-0.186814	0.610985	-0.701731	-0.211878	0.666833	-0.702885	-0.287683	0.265594	-0.683671	-0.308011	0.231321	-0.676266	-0.251779	0.204092	-0.682016	-0.238108	0.245307	-0.689843	-0.398483	0.067681	-0.609279	-0.264306	0.028476	-0.707342	-0.214543	0.035661	-0.643137	-0.193288	0.026802	-0.659193	
5	0.0250	-0.310801	1.301233	-0.511806	-0.249379	1.252854	-0.692261	-0.248416	1.269174	-0.340219	-0.194354	1.250988	-0.517092	-0.166971	0.860920	-0.440392	-0.184013	0.874415	-0.617049	-0.229074	0.908043	-0.383417	-0.239596	0.927716	-0.642597	-0.316883	0.895763	-0.440859	-0.325424	0.909836	-0.557137	-0.325473	0.910649	-0.498215	-0.230457	0.681329	-0.354253	-0.217080	0.620973	-0.356700	-0.149436	0.644167	-0.375329	-0.170746	0.700855	-0.370610	-0.244419	0.281742	-0.353806	-0.271513	0.248151	-0.357698	-0.221617	0.216805	-0.372754	-0.199542	0.250753	-0.372058	-0.414339	0.071400	-0.417540	-0.267869	0.030181	-0.338095	-0.229037	0.033038	-0.415159	-0.204394	0.026389	-0.402751	-0.272058	0.648652	-0.686817	-0.254793	0.591952	-0.685688	-0.187629	0.612733	-0.702121	-0.212299	0.668736	-0.703124	-0.288744	0.266725	-0.684053	-0.308923	0.232420	-0.676637	-0.252567	0.205477	-0.682595	-0.239109	0.246748	-0.690485	-0.398305	0.068649	-0.609703	-0.264243	0.028433	-0.707497	-0.214597	0.035580	-0.643226	-0.193326	0.026811	-0.659272	
6	0.0300	-0.311347	1.303466	-0.511452	-0.250951	1.255349	-0.692193	-0.248278	1.271815	-0.339964	-0.194987	1.253678	-0.517187	-0.166405	0.863108	-0.440153	-0.183562	0.876990	-0.616633	-0.228293	0.910051	-0.383044	-0.238918	0.930307	-0.642314	-0.316197	0.898017	-0.440668	-0.324980	0.912287	-0.556899	-0.325044	0.913001	-0.497858	-0.229720	0.683774	-0.353977	-0.216744	0.623313	-0.356316	-0.149143	0.646057	-0.375665	-0.170056	0.702899	-0.370927	-0.245749	0.282658	-0.353374	-0.272661	0.248820	-0.357448	-0.222506	0.217900	-0.372383	-0.200667	0.251980	-0.371642	-0.414322	0.071732	-0.417171	-0.267794	0.030178	-0.338001	-0.229088	0.033048	-0.415135	-0.204493	0.026379	-0.402686	-0.272679	0.651349	-0.686710	-0.255776	0.594556	-0.685630	-0.188554	0.614825	-0.702487	-0.212837	0.670982	-0.703366	-0.289987	0.268073	-0.684354	-0.310030	0.233706	-0.676908	-0.253504	0.207073	-0.683145	-0.240286	0.248405	-0.691070	-0.398100	0.069741	-0.610080	-0.264187	0.028402	-0.707622	-0.214634	0.035532	-0.643344	-0.193372	0.026825	-0.659351	
7	0.0350	-0.311953	1.306052	-0.511106	-0.252509	1.258229	-0.692118	-0.248211	1.274845	-0.339769	-0.195669	1.256684	-0.517281	-0.165767	0.865628	-0.439963	-0.183039	0.879881	-0.616226	-0.227318	0.912512	-0.382724	-0.238004	0.933392	-0.641854	-0.315548	0.900712	-0.440487	-0.324439	0.915102	-0.556697	-0.324513	0.915721	-0.497578	-0.229075	0.686605	-0.353718	-0.216495	0.626040	-0.355915	-0.148927	0.648321	-0.375927	-0.169445	0.705309	-0.371209	-0.247309	0.283864	-0.352882	-0.273996	0.249814	-0.357200	-0.223556	0.219321	-0.371870	-0.201970	0.253539	-0.371075	-0.414237	0.072238	-0.416774	-0.267706	0.030177	-0.337901	-0.229125	0.033061	-0.415085	-0.204587	0.026345	-0.402625	-0.273388	0.654376	-0.686577	-0.256844	0.597510	-0.685541	-0.189569	0.617278	-0.702816	-0.213473	0.673589	-0.703585	-0.291395	0.269635	-0.684560	-0.311267	0.235167	-0.677065	-0.254568	0.208893	-0.683657	-0.241620	0.250293	-0.691587	-0.397849	0.070980	-0.610426	-0.264139	0.028391	-0.707710	-0.214656	0.035503	-0.643482	-0.193425	0.026841	-0.659432	
